<?xml version="1.0" encoding="utf-8"?>
<svg viewBox="29.905 161.025 678.278 252.711" xmlns="http://www.w3.org/2000/svg">
  <defs>
    <linearGradient id="linear-gradient" x1="560.59" y1="337.46" x2="444.34" y2="295.14" gradientUnits="userSpaceOnUse">
      <stop offset="0" stop-color="#881629"/>
      <stop offset="0.14" stop-color="#90162a"/>
      <stop offset="0.25" stop-color="#9b152b"/>
      <stop offset="0.63" stop-color="#e0293b"/>
      <stop offset="1" stop-color="#e52b4c"/>
    </linearGradient>
  </defs>
  <path class="cls-2" d="M475.42,260.58a7.88,7.88,0,0,1-13.94,0l0,0Z" transform="matrix(1, 0, 0, 1, 31.25383, -93.059486)" style="fill: rgb(255, 255, 255);"/>
  <path class="cls-3" d="M319,452.75h40.64a510.39,510.39,0,0,1-65.7,29.09,424.65,424.65,0,0,1-87.29,21.63,334.72,334.72,0,0,1-90.37.31A228.54,228.54,0,0,1,71.76,493.3a167.87,167.87,0,0,1-21.23-9.21A139.67,139.67,0,0,1,31,471.47l-4.48-3.74c-1.49-1.29-3-2.61-4.43-4a74.27,74.27,0,0,1-7.92-9,71.94,71.94,0,0,1-11-21.12,69.63,69.63,0,0,1,1.27-46.16C16,358.67,42.16,338.12,70.89,331.74c-3.4,1.4-6.81,2.76-10.14,4.23A95.37,95.37,0,0,0,51.09,341a100.68,100.68,0,0,0-17.28,13.09c-10.32,9.92-18.71,22.19-22.54,35.59a62.2,62.2,0,0,0,1.89,40.33,61.38,61.38,0,0,0,10.37,17.2,62.81,62.81,0,0,0,7.12,7.1c1.27,1.09,2.59,2.12,3.94,3.12l4.34,2.87A142.5,142.5,0,0,0,77,477a193.31,193.31,0,0,0,20.55,4.74c6.94,1.31,14,2.27,21,3a358.85,358.85,0,0,0,42.71,2.07A375.51,375.51,0,0,0,204,483.69C243.32,478.5,281.82,467.59,319,452.75Z" transform="matrix(1, 0, 0, 1, 31.25383, -93.059486)" style="fill: rgb(226, 15, 51);"/>
  <path class="cls-3" d="M473.1,370.73C467,376.9,460.57,382.84,454,388.58H438.89c1.2-.82,2.38-1.69,3.59-2.54q13.35-9.44,26.06-19.85A55.84,55.84,0,0,0,473.1,370.73Z" transform="matrix(1, 0, 0, 1, 31.25383, -93.059486)" style="fill: rgb(226, 15, 51);"/>
  <polygon class="cls-3" points="77.44 434.51 83.06 434.51 83.06 422.16 93.05 422.16 93.05 416.95 83.06 416.95 83.06 410.99 95.22 410.99 95.22 405.82 77.44 405.82 77.44 434.51" transform="matrix(1, 0, 0, 1, 31.25383, -93.059486)" style="fill: rgb(226, 15, 51);"/>
  <path class="cls-3" d="M129.93,410a14.89,14.89,0,0,0-4.56-3.05,14.56,14.56,0,0,0-11.17,0,14.12,14.12,0,0,0-4.57,3.06,15.4,15.4,0,0,0-3.09,4.56,14.69,14.69,0,0,0-1.12,5.6,14.14,14.14,0,0,0,4.22,10.13,14.53,14.53,0,0,0,4.56,3.1h0a14.36,14.36,0,0,0,5.57,1.12,14.6,14.6,0,0,0,5.61-1.13,15.09,15.09,0,0,0,4.56-3.09,14,14,0,0,0,3.05-4.56,14.14,14.14,0,0,0,1.12-5.57,14.59,14.59,0,0,0-1.12-5.61A15,15,0,0,0,129.93,410Zm-1.43,10.17a8.77,8.77,0,1,1-2.57-6.16A8.67,8.67,0,0,1,128.5,420.16Z" transform="matrix(1, 0, 0, 1, 31.25383, -93.059486)" style="fill: rgb(226, 15, 51);"/>
  <path class="cls-3" d="M161.07,422.31a10.8,10.8,0,0,0,0-13.54,9.29,9.29,0,0,0-7.32-2.95H145v28.69h5.61v-9.26h2.13l6.89,9.26h6.5l-7.65-10.26A8.35,8.35,0,0,0,161.07,422.31Zm-2.82-6.76a4.65,4.65,0,0,1-1.05,3.28,4.37,4.37,0,0,1-3.44,1.25h-3.17V411h3.17a4.42,4.42,0,0,1,3.46,1.22A4.74,4.74,0,0,1,158.25,415.55Z" transform="matrix(1, 0, 0, 1, 31.25383, -93.059486)" style="fill: rgb(226, 15, 51);"/>
  <path class="cls-3" d="M207.56,420.45c-.59-.55-1.39-1.32-2.06-2l-4.57-4.38c-.49-.48-1-1.17-.85-1.81a1.86,1.86,0,0,1,1.47-1.11,3,3,0,0,1,3,1.32l.42.51,4.4-3.53-.43-.53a9.94,9.94,0,0,0-4-3,7.94,7.94,0,0,0-4.4-.33,7.81,7.81,0,0,0-3.59,1.7,6.85,6.85,0,0,0-2.23,3.38,6.41,6.41,0,0,0,.07,3.85,8.51,8.51,0,0,0,2.28,3.57l3.34,3.16c.15.15,2.15,2.11,3.37,3.25.92.89,1.28,1.7,1.07,2.42a3,3,0,0,1-2.38,1.83,3.57,3.57,0,0,1-2.13-.2,5.5,5.5,0,0,1-2.39-1.91l-.41-.54L193,429.63l.41.53a11.59,11.59,0,0,0,4.82,3.71,9.52,9.52,0,0,0,3.48.64,9.79,9.79,0,0,0,1.8-.16,8.63,8.63,0,0,0,6.66-5.82,7.07,7.07,0,0,0-.08-4.22A8.7,8.7,0,0,0,207.56,420.45Z" transform="matrix(1, 0, 0, 1, 31.25383, -93.059486)" style="fill: rgb(226, 15, 51);"/>
  <polygon class="cls-3" points="220.7 434.51 238.44 434.51 238.44 429.3 226.31 429.3 226.31 422.16 236.3 422.16 236.3 416.95 226.31 416.95 226.31 410.99 238.44 410.99 238.44 405.82 220.7 405.82 220.7 434.51" transform="matrix(1, 0, 0, 1, 31.25383, -93.059486)" style="fill: rgb(226, 15, 51);"/>
  <path class="cls-3" d="M267.61,426.33A8.72,8.72,0,1,1,255.28,414a8.72,8.72,0,0,1,11.67-.61l1.09.9v-6.92l-.67-.28-.32-.14a14.56,14.56,0,0,0-11.17,0,13.48,13.48,0,0,0-4.57,3.05,14.12,14.12,0,0,0-4.21,10.17,14.18,14.18,0,0,0,4.21,10.13,14.53,14.53,0,0,0,4.56,3.1,14.36,14.36,0,0,0,5.57,1.12,14.56,14.56,0,0,0,5.61-1.13,16.67,16.67,0,0,0,2.3-1.22l.32-.2v-8.1l-1.19,1.49C268.2,425.7,267.92,426,267.61,426.33Z" transform="matrix(1, 0, 0, 1, 31.25383, -93.059486)" style="fill: rgb(226, 15, 51);"/>
  <path class="cls-3" d="M295.39,424.55a3.73,3.73,0,0,1-1.4,3.19,6.94,6.94,0,0,1-7.52,0,3.79,3.79,0,0,1-1.43-3.19V405.82h-5.61v18.73a9.85,9.85,0,0,0,1,4.46,8.64,8.64,0,0,0,2.62,3.18,12.32,12.32,0,0,0,14.39,0,9.58,9.58,0,0,0,2.62-3.19,10.3,10.3,0,0,0,1-4.45V405.82h-5.65Z" transform="matrix(1, 0, 0, 1, 31.25383, -93.059486)" style="fill: rgb(226, 15, 51);"/>
  <path class="cls-3" d="M328.62,422.31a10,10,0,0,0,2.39-6.76,9.87,9.87,0,0,0-2.38-6.78,9.29,9.29,0,0,0-7.32-2.95h-8.78v28.69h5.61v-9.26h2.13l6.9,9.26h6.49L326,424.25A8.23,8.23,0,0,0,328.62,422.31Zm-2.82-6.76a4.65,4.65,0,0,1-1.05,3.28,4.37,4.37,0,0,1-3.44,1.25h-3.17V411h3.17a4.42,4.42,0,0,1,3.46,1.22A4.74,4.74,0,0,1,325.8,415.55Z" transform="matrix(1, 0, 0, 1, 31.25383, -93.059486)" style="fill: rgb(226, 15, 51);"/>
  <polygon class="cls-3" points="342.39 434.51 360.13 434.51 360.13 429.3 348 429.3 348 422.16 358 422.16 358 416.95 348 416.95 348 410.99 360.13 410.99 360.13 405.82 342.39 405.82 342.39 434.51" transform="matrix(1, 0, 0, 1, 31.25383, -93.059486)" style="fill: rgb(226, 15, 51);"/>
  <path class="cls-3" d="M409,426.33A8.72,8.72,0,1,1,396.7,414a8.71,8.71,0,0,1,11.66-.61l1.1.9v-6.92l-.68-.28-.31-.14a14.56,14.56,0,0,0-11.17,0,13.61,13.61,0,0,0-4.58,3.05,14.93,14.93,0,0,0-3.09,4.57,14.69,14.69,0,0,0-1.12,5.6,14.32,14.32,0,0,0,1.12,5.57,14.63,14.63,0,0,0,7.66,7.66,14.32,14.32,0,0,0,5.57,1.12,14.51,14.51,0,0,0,5.6-1.13,17.34,17.34,0,0,0,2.31-1.22l.31-.2v-8.1l-1.19,1.49C409.61,425.7,409.33,426,409,426.33Z" transform="matrix(1, 0, 0, 1, 31.25383, -93.059486)" style="fill: rgb(226, 15, 51);"/>
  <polygon class="cls-3" points="431.61 415.09 424.8 405.82 418.53 405.82 428.81 419.75 428.81 434.51 434.42 434.51 434.42 419.75 444.65 405.82 438.42 405.82 431.61 415.09" transform="matrix(1, 0, 0, 1, 31.25383, -93.059486)" style="fill: rgb(226, 15, 51);"/>
  <path class="cls-3" d="M469.33,418.93c-.25-.23-.49-.43-.72-.61a7.68,7.68,0,0,0,1.83-4.9,8,8,0,0,0-.61-3.15,6.52,6.52,0,0,0-2.1-2.63c-1.66-1.22-4-1.82-7.18-1.82h-6.71v28.69h6.71a14.73,14.73,0,0,0,7.89-1.92,7.75,7.75,0,0,0,3.69-6.86,9.09,9.09,0,0,0-2.8-6.8Zm-5.05-3.59a8.75,8.75,0,0,1-2.95,1.77,16,16,0,0,1-1.88.65V411h1.1a7.64,7.64,0,0,1,4.07.83c.2.14.61.44.61,1.6A2.59,2.59,0,0,1,464.28,415.34Zm-4.83,7.79a24.16,24.16,0,0,0,3.72-1.16c.26-.09.5-.2.74-.3l.17-.08a5.75,5.75,0,0,1,1.65,1.12,3.92,3.92,0,0,1,1.23,3,2.65,2.65,0,0,1-1.35,2.49,9.69,9.69,0,0,1-5.06,1.08h-1.1Z" transform="matrix(1, 0, 0, 1, 31.25383, -93.059486)" style="fill: rgb(226, 15, 51);"/>
  <polygon class="cls-3" points="482.89 434.51 500.63 434.51 500.63 429.3 488.5 429.3 488.5 422.16 498.49 422.16 498.49 416.95 488.5 416.95 488.5 410.99 500.63 410.99 500.63 405.82 482.89 405.82 482.89 434.51" transform="matrix(1, 0, 0, 1, 31.25383, -93.059486)" style="fill: rgb(226, 15, 51);"/>
  <path class="cls-3" d="M527.81,422.31a10,10,0,0,0,2.38-6.76,9.87,9.87,0,0,0-2.38-6.78,9.27,9.27,0,0,0-7.32-2.95h-8.77v28.69h5.61v-9.26h2.13l6.89,9.26h6.5l-7.66-10.26A8.41,8.41,0,0,0,527.81,422.31ZM525,415.55a4.65,4.65,0,0,1-1,3.28,4.41,4.41,0,0,1-3.45,1.25h-3.16V411h3.16a4.39,4.39,0,0,1,3.46,1.22A4.7,4.7,0,0,1,525,415.55Z" transform="matrix(1, 0, 0, 1, 31.25383, -93.059486)" style="fill: rgb(226, 15, 51);"/>
  <path class="cls-3" d="M555,420.45c-.59-.55-1.39-1.32-2.06-2l-4.57-4.38c-.49-.48-1-1.17-.86-1.81a1.89,1.89,0,0,1,1.48-1.11,3,3,0,0,1,3,1.32l.42.51,4.4-3.53-.44-.53a9.84,9.84,0,0,0-4-3,7.93,7.93,0,0,0-4.4-.33,7.81,7.81,0,0,0-3.59,1.7,6.89,6.89,0,0,0-2.24,3.38,6.42,6.42,0,0,0,.08,3.85,8.51,8.51,0,0,0,2.28,3.57l3.34,3.16c.15.15,2.15,2.11,3.37,3.25.92.89,1.28,1.7,1.07,2.42a3,3,0,0,1-2.38,1.83,3.57,3.57,0,0,1-2.13-.2,5.5,5.5,0,0,1-2.39-1.91l-.41-.55-4.45,3.49.41.53a11.71,11.71,0,0,0,4.81,3.71,9.92,9.92,0,0,0,5.28.48,8.63,8.63,0,0,0,6.67-5.82,7.07,7.07,0,0,0-.08-4.22A8.7,8.7,0,0,0,555,420.45Z" transform="matrix(1, 0, 0, 1, 31.25383, -93.059486)" style="fill: rgb(226, 15, 51);"/>
  <path class="cls-3" d="M576.9,405.82h-8.78v28.69h5.61v-9.26h3.17a9.28,9.28,0,0,0,7.31-2.94,9.76,9.76,0,0,0,2.39-6.79,9.88,9.88,0,0,0-2.39-6.79A9.41,9.41,0,0,0,576.9,405.82Zm4.53,9.7a5.1,5.1,0,0,1-1,3.3,4.52,4.52,0,0,1-3.49,1.23h-3.17V411h3.17a4.52,4.52,0,0,1,3.48,1.25A5,5,0,0,1,581.43,415.52Z" transform="matrix(1, 0, 0, 1, 31.25383, -93.059486)" style="fill: rgb(226, 15, 51);"/>
  <path class="cls-3" d="M591.6,434.51h6.18l2.32-5.86h8.82l2.33,5.86h6.13l-12.87-31Zm15.25-11h-4.67l2.33-5.86Z" transform="matrix(1, 0, 0, 1, 31.25383, -93.059486)" style="fill: rgb(226, 15, 51);"/>
  <path class="cls-3" d="M644.41,426.33A8.72,8.72,0,1,1,632.08,414a8.72,8.72,0,0,1,11.67-.61l1.09.9v-6.92l-.67-.28-.32-.14a14.56,14.56,0,0,0-11.17,0,13.48,13.48,0,0,0-4.57,3.05,14.23,14.23,0,0,0-4.21,10.17,14.18,14.18,0,0,0,4.21,10.13,14.53,14.53,0,0,0,4.56,3.1,14.36,14.36,0,0,0,5.57,1.12,14.56,14.56,0,0,0,5.61-1.13,16.75,16.75,0,0,0,2.31-1.22l.31-.2v-8.1l-1.19,1.49C645,425.7,644.72,426,644.41,426.33Z" transform="matrix(1, 0, 0, 1, 31.25383, -93.059486)" style="fill: rgb(226, 15, 51);"/>
  <polygon class="cls-3" points="675.11 410.99 675.11 405.82 657.37 405.82 657.37 434.51 675.11 434.51 675.11 429.3 662.98 429.3 662.98 422.16 672.97 422.16 672.97 416.95 662.98 416.95 662.98 410.99 675.11 410.99" transform="matrix(1, 0, 0, 1, 31.25383, -93.059486)" style="fill: rgb(226, 15, 51);"/>
  <polygon class="cls-4" points="331.96 354.67 332.93 355.74 332.93 354.29 332.93 274.82 332.93 274.26 332.38 274.26 315.64 274.26 315.08 274.26 315.08 274.82 315.08 335.79 315.08 336.01 315.23 336.17 331.96 354.67" transform="matrix(1, 0, 0, 1, 31.25383, -93.059486)" style="fill: rgb(28, 43, 78);"/>
  <path class="cls-4" d="M402.43,304.53H380.29v.13a9.74,9.74,0,0,0,0,19.44v.13h22.14a22.33,22.33,0,0,1,0,44.65H337l-20.93-24.17L249.36,271l-1-1.07v96.83h-4.07l-39.67-95.59-.51-1.24-.52,1.24-12.21,29.35-13.54,32.54-13.14,31.52-.9,2.18H144.62l-17.26-23.12h5.21c2.29,0,4.66,0,7-.22l.58-.06c.57-.05,1.15-.11,1.69-.21a24.26,24.26,0,0,0,8.51-3.06,18.09,18.09,0,0,0,2.36-1.73,34.08,34.08,0,0,0,2.73-2.45c.3-.31.59-.61.89-.94l.12-.13c5.95-6.56,9.22-15.88,9.22-26.24,0-10.63-3.18-19.77-9.21-26.42-4.6-5.18-13.26-11.36-28.41-11.36H77.42v16.29h0v41.66l0,.56v54.81h0l.56.05H96.09v-6.13l0-.56V350.7h0V330.24L107.83,346l.12.15.15.2,1,1.33v-.12l7.16,9.6,20,26.81.17.22h1.44l.56,0H176.3l.14-.35,9-22.65h32.35l-.3-.76-6-15.05-.14-.35H192l12.19-30.64,27.69,69.45.14.35H266.1V316.08l66,72.32.16.18h70.2a42,42,0,0,0,0-84.05ZM127.29,328.78H96.09V287.12h31.2a20.45,20.45,0,0,1,14.59,6.12,20.85,20.85,0,0,1-14.59,35.54Z" transform="matrix(1, 0, 0, 1, 31.25383, -93.059486)" style="fill: rgb(28, 43, 78);"/>
  <path class="cls-4" d="M443.89,272.35H382.07a42,42,0,0,0,0,84h22.14v-.24a9.73,9.73,0,0,0,0-19.21v-.25H382.07a22.33,22.33,0,0,1,0-44.65h26.71a57.48,57.48,0,0,1,10.41,1.39l.44.12.42.13.38.13.77.33V294c9.05,2.59,16.92,9,22.21,18.14l1,1.8v-41.6Z" transform="matrix(1, 0, 0, 1, 31.25383, -93.059486)" style="fill: rgb(28, 43, 78);"/>
  <path class="cls-4" d="M674.09,272.59l-51.31,76.46-51.3-76.46-1-1.52v61.5c-.06,13.84-7.94,43.12-37.31,54.93l-2.66,1.08h58.29v-57.2l33.54,49.84.46.68.47-.68,33.4-49.83v57.19h18.46V271.07Z" transform="matrix(1, 0, 0, 1, 31.25383, -93.059486)" style="fill: rgb(28, 43, 78);"/>
  <path class="cls-5" d="M560.1,268.71v60.56c0,13.46-5.43,45.62-53.08,58.75q-20.76-5.7-33.61-17l26.2-23.75,0,0,2.12-1.92a5.6,5.6,0,0,0,10.9-1.84V316.54a14.25,14.25,0,1,0-11.24,0v26.77l-1.78,1.2,0,0-31.36,21.35A56.35,56.35,0,0,1,454,328l.09-59.27H454S504,236.08,560.1,268.71Z" transform="matrix(1, 0, 0, 1, 31.25383, -93.059486)" style="fill: url(#linear-gradient);"/>
  <path class="cls-6" d="M525.85,303.58a18.84,18.84,0,0,1-11.4,17.3v29.17a7.42,7.42,0,1,1-14.84,0v-2.8l0,0,2.12-1.92a5.6,5.6,0,0,0,10.9-1.84V316.54a14.25,14.25,0,1,0-11.24,0v26.77l-1.78,1.2,0,0V320.88a18.83,18.83,0,1,1,26.24-17.3Z" transform="matrix(1, 0, 0, 1, 31.25383, -93.059486)" style="fill: rgb(117, 21, 45);"/>
</svg>