<?xml version="1.0" encoding="utf-8"?>
<svg viewBox="0 3.552 676.436 254.885" xmlns="http://www.w3.org/2000/svg">
  <defs>
    <linearGradient id="linear-gradient" x1="560.59" y1="337.46" x2="444.34" y2="295.14" gradientUnits="userSpaceOnUse" gradientTransform="matrix(1, 0, 0, 1, 0.288445, -249.161233)">
      <stop offset="0" stop-color="#881629"/>
      <stop offset="0.14" stop-color="#90162a"/>
      <stop offset="0.25" stop-color="#9b152b"/>
      <stop offset="0.63" stop-color="#e0293b"/>
      <stop offset="1" stop-color="#e52b4c"/>
    </linearGradient>
  </defs>
  <path class="cls-2" d="M 475.708 11.418 C 472.878 16.784 465.301 17.074 462.07 11.94 C 461.963 11.77 461.862 11.596 461.768 11.418 L 461.768 11.418 Z" style="fill: rgb(255, 255, 255);"/>
  <path class="cls-3" d="M 319.288 203.588 L 359.928 203.588 C 338.739 214.816 316.784 224.537 294.228 232.678 C 265.979 242.958 236.719 250.208 206.938 254.308 C 176.967 258.496 146.567 258.601 116.568 254.618 C 101.415 252.622 86.501 249.112 72.048 244.138 C 64.768 241.56 57.675 238.483 50.818 234.928 C 43.969 231.272 37.436 227.051 31.288 222.308 L 26.808 218.568 C 25.318 217.278 23.808 215.958 22.378 214.568 C 19.5 211.787 16.851 208.777 14.458 205.568 C 9.644 199.188 5.926 192.051 3.458 184.448 C -1.381 169.365 -0.933 153.083 4.728 138.288 C 16.288 109.508 42.448 88.958 71.178 82.578 C 67.778 83.978 64.368 85.338 61.038 86.808 C 57.725 88.3 54.5 89.979 51.378 91.838 C 45.164 95.567 39.37 99.956 34.098 104.928 C 23.778 114.848 15.388 127.118 11.558 140.518 C 7.686 153.798 8.351 167.989 13.448 180.848 C 15.937 187.112 19.441 192.923 23.818 198.048 C 25.998 200.601 28.379 202.976 30.938 205.148 C 32.208 206.238 33.528 207.268 34.878 208.268 L 39.218 211.138 C 51.024 218.536 63.85 224.163 77.288 227.838 C 84.047 229.791 90.907 231.373 97.838 232.578 C 104.778 233.888 111.838 234.848 118.838 235.578 C 133.021 237.117 147.283 237.808 161.548 237.648 C 175.843 237.423 190.113 236.381 204.288 234.528 C 243.608 229.338 282.108 218.428 319.288 203.588 Z" style="fill: rgb(226, 15, 51);"/>
  <path class="cls-3" d="M 473.388 121.568 C 467.288 127.738 460.858 133.678 454.288 139.418 L 439.178 139.418 C 440.378 138.598 441.558 137.728 442.768 136.878 C 451.668 130.585 460.355 123.968 468.828 117.028 C 470.26 118.628 471.782 120.144 473.388 121.568 Z" style="fill: rgb(226, 15, 51);"/>
  <polygon class="cls-3" points="77.728 185.348 83.348 185.348 83.348 172.998 93.338 172.998 93.338 167.788 83.348 167.788 83.348 161.828 95.508 161.828 95.508 156.658 77.728 156.658 77.728 185.348" style="fill: rgb(226, 15, 51);"/>
  <path class="cls-3" d="M 130.218 160.838 C 128.9 159.548 127.354 158.514 125.658 157.788 C 122.083 156.303 118.064 156.303 114.488 157.788 C 112.779 158.499 111.226 159.539 109.918 160.848 C 108.623 162.17 107.576 163.715 106.828 165.408 C 106.092 167.184 105.712 169.086 105.708 171.008 C 105.694 174.815 107.215 178.467 109.928 181.138 C 111.236 182.453 112.784 183.506 114.488 184.238 L 114.488 184.238 C 116.252 184.979 118.146 185.36 120.058 185.358 C 121.985 185.355 123.891 184.971 125.668 184.228 C 127.365 183.487 128.911 182.439 130.228 181.138 C 131.536 179.834 132.572 178.285 133.278 176.578 C 134.025 174.817 134.406 172.922 134.398 171.008 C 134.399 169.083 134.018 167.176 133.278 165.398 C 132.548 163.703 131.51 162.157 130.218 160.838 Z M 128.788 171.008 C 128.821 177.759 121.534 182.014 115.67 178.667 C 109.807 175.32 109.766 166.882 115.596 163.478 C 119.037 161.468 123.4 162.032 126.218 164.848 C 127.86 166.474 128.785 168.688 128.788 170.998 Z" style="fill: rgb(226, 15, 51);"/>
  <path class="cls-3" d="M 161.358 173.148 C 164.539 169.195 164.539 163.561 161.358 159.608 C 159.478 157.586 156.795 156.505 154.038 156.658 L 145.288 156.658 L 145.288 185.348 L 150.898 185.348 L 150.898 176.088 L 153.028 176.088 L 159.918 185.348 L 166.418 185.348 L 158.768 175.088 C 159.75 174.617 160.63 173.958 161.358 173.148 Z M 158.538 166.388 C 158.621 167.576 158.245 168.75 157.488 169.668 C 156.58 170.568 155.323 171.025 154.048 170.918 L 150.878 170.918 L 150.878 161.838 L 154.048 161.838 C 155.324 161.725 156.586 162.17 157.508 163.058 C 158.262 163.997 158.63 165.188 158.538 166.388 Z" style="fill: rgb(226, 15, 51);"/>
  <path class="cls-3" d="M 207.848 171.288 C 207.258 170.738 206.458 169.968 205.788 169.288 L 201.218 164.908 C 200.728 164.428 200.218 163.738 200.368 163.098 C 200.628 162.495 201.187 162.073 201.838 161.988 C 203.012 161.795 204.188 162.313 204.838 163.308 L 205.258 163.818 L 209.658 160.288 L 209.228 159.758 C 208.172 158.434 206.795 157.401 205.228 156.758 C 203.822 156.235 202.297 156.12 200.828 156.428 C 199.505 156.676 198.268 157.262 197.238 158.128 C 196.171 159.005 195.394 160.183 195.008 161.508 C 194.636 162.769 194.661 164.113 195.078 165.358 C 195.525 166.721 196.31 167.95 197.358 168.928 L 200.698 172.088 C 200.848 172.238 202.848 174.198 204.068 175.338 C 204.988 176.228 205.348 177.038 205.138 177.758 C 204.729 178.75 203.822 179.448 202.758 179.588 C 202.045 179.741 201.301 179.671 200.628 179.388 C 199.667 178.991 198.838 178.328 198.238 177.478 L 197.828 176.938 L 193.288 180.468 L 193.698 180.998 C 194.946 182.642 196.61 183.923 198.518 184.708 C 199.628 185.137 200.808 185.354 201.998 185.348 C 202.602 185.351 203.205 185.297 203.798 185.188 C 206.919 184.62 209.477 182.385 210.458 179.368 C 210.862 177.986 210.834 176.514 210.378 175.148 C 209.898 173.657 209.024 172.324 207.848 171.288 Z" style="fill: rgb(226, 15, 51);"/>
  <polygon class="cls-3" points="220.988 185.348 238.728 185.348 238.728 180.138 226.598 180.138 226.598 172.998 236.588 172.998 236.588 167.788 226.598 167.788 226.598 161.828 238.728 161.828 238.728 156.658 220.988 156.658 220.988 185.348" style="fill: rgb(226, 15, 51);"/>
  <path class="cls-3" d="M 267.898 177.168 C 263.237 181.998 255.095 179.971 253.242 173.519 C 252.352 170.418 253.247 167.079 255.568 164.838 C 258.727 161.673 263.767 161.41 267.238 164.228 L 268.328 165.128 L 268.328 158.208 L 267.658 157.928 L 267.338 157.788 C 263.763 156.303 259.744 156.303 256.168 157.788 C 254.452 158.48 252.896 159.519 251.598 160.838 C 248.877 163.519 247.358 167.188 247.388 171.008 C 247.376 174.813 248.893 178.463 251.598 181.138 C 252.906 182.453 254.454 183.506 256.158 184.238 C 257.922 184.979 259.816 185.36 261.728 185.358 C 263.655 185.356 265.561 184.972 267.338 184.228 C 268.136 183.882 268.905 183.474 269.638 183.008 L 269.958 182.808 L 269.958 174.708 L 268.768 176.198 C 268.488 176.538 268.208 176.838 267.898 177.168 Z" style="fill: rgb(226, 15, 51);"/>
  <path class="cls-3" d="M 295.678 175.388 C 295.767 176.618 295.243 177.812 294.278 178.578 C 291.989 180.054 289.048 180.054 286.758 178.578 C 285.79 177.811 285.257 176.621 285.328 175.388 L 285.328 156.658 L 279.718 156.658 L 279.718 175.388 C 279.697 176.933 280.04 178.461 280.718 179.848 C 281.322 181.104 282.221 182.195 283.338 183.028 C 287.637 186.121 293.43 186.121 297.728 183.028 C 298.823 182.168 299.717 181.079 300.348 179.838 C 301.01 178.448 301.352 176.928 301.348 175.388 L 301.348 156.658 L 295.698 156.658 Z" style="fill: rgb(226, 15, 51);"/>
  <path class="cls-3" d="M 328.908 173.148 C 330.513 171.268 331.365 168.86 331.298 166.388 C 331.385 163.91 330.535 161.489 328.918 159.608 C 327.038 157.586 324.355 156.505 321.598 156.658 L 312.818 156.658 L 312.818 185.348 L 318.428 185.348 L 318.428 176.088 L 320.558 176.088 L 327.458 185.348 L 333.948 185.348 L 326.288 175.088 C 327.282 174.623 328.173 173.963 328.908 173.148 Z M 326.088 166.388 C 326.171 167.576 325.795 168.75 325.038 169.668 C 324.13 170.568 322.873 171.025 321.598 170.918 L 318.428 170.918 L 318.428 161.838 L 321.598 161.838 C 322.874 161.725 324.136 162.17 325.058 163.058 C 325.812 163.997 326.18 165.188 326.088 166.388 Z" style="fill: rgb(226, 15, 51);"/>
  <polygon class="cls-3" points="342.678 185.348 360.418 185.348 360.418 180.138 348.288 180.138 348.288 172.998 358.288 172.998 358.288 167.788 348.288 167.788 348.288 161.828 360.418 161.828 360.418 156.658 342.678 156.658 342.678 185.348" style="fill: rgb(226, 15, 51);"/>
  <path class="cls-3" d="M 409.288 177.168 C 404.791 182.152 396.585 180.397 394.519 174.011 C 393.458 170.734 394.426 167.14 396.988 164.838 C 400.143 161.674 405.18 161.411 408.648 164.228 L 409.748 165.128 L 409.748 158.208 L 409.068 157.928 L 408.758 157.788 C 405.183 156.303 401.164 156.303 397.588 157.788 C 395.87 158.483 394.311 159.52 393.008 160.838 C 391.703 162.157 390.655 163.706 389.918 165.408 C 389.182 167.184 388.802 169.086 388.798 171.008 C 388.796 172.921 389.177 174.815 389.918 176.578 C 391.397 180.018 394.139 182.759 397.578 184.238 C 399.342 184.98 401.235 185.361 403.148 185.358 C 405.071 185.356 406.975 184.972 408.748 184.228 C 409.548 183.88 410.32 183.473 411.058 183.008 L 411.368 182.808 L 411.368 174.708 L 410.178 176.198 C 409.898 176.538 409.618 176.838 409.288 177.168 Z" style="fill: rgb(226, 15, 51);"/>
  <polygon class="cls-3" points="431.898 165.928 425.088 156.658 418.818 156.658 429.098 170.588 429.098 185.348 434.708 185.348 434.708 170.588 444.938 156.658 438.708 156.658 431.898 165.928" style="fill: rgb(226, 15, 51);"/>
  <path class="cls-3" d="M 469.618 169.768 C 469.368 169.538 469.128 169.338 468.898 169.158 C 470.063 167.789 470.71 166.055 470.728 164.258 C 470.74 163.178 470.532 162.106 470.118 161.108 C 469.661 160.063 468.936 159.156 468.018 158.478 C 466.358 157.258 464.018 156.658 460.838 156.658 L 454.128 156.658 L 454.128 185.348 L 460.838 185.348 C 463.596 185.46 466.33 184.795 468.728 183.428 C 471.102 181.971 472.51 179.352 472.418 176.568 C 472.484 174.008 471.468 171.539 469.618 169.768 Z M 464.568 166.178 C 463.712 166.958 462.709 167.559 461.618 167.948 C 461.006 168.204 460.378 168.421 459.738 168.598 L 459.738 161.838 L 460.838 161.838 C 462.246 161.734 463.654 162.021 464.908 162.668 C 465.108 162.808 465.518 163.108 465.518 164.268 C 465.491 165.012 465.145 165.708 464.568 166.178 Z M 459.738 173.968 C 461.008 173.682 462.252 173.295 463.458 172.808 C 463.718 172.718 463.958 172.608 464.198 172.508 L 464.368 172.428 C 464.979 172.703 465.538 173.082 466.018 173.548 C 466.842 174.324 467.29 175.418 467.248 176.548 C 467.317 177.569 466.791 178.539 465.898 179.038 C 464.341 179.85 462.592 180.224 460.838 180.118 L 459.738 180.118 Z" style="fill: rgb(226, 15, 51);"/>
  <polygon class="cls-3" points="483.178 185.348 500.918 185.348 500.918 180.138 488.788 180.138 488.788 172.998 498.778 172.998 498.778 167.788 488.788 167.788 488.788 161.828 500.918 161.828 500.918 156.658 483.178 156.658 483.178 185.348" style="fill: rgb(226, 15, 51);"/>
  <path class="cls-3" d="M 528.098 173.148 C 529.7 171.266 530.547 168.858 530.478 166.388 C 530.565 163.91 529.715 161.489 528.098 159.608 C 526.22 157.584 523.536 156.502 520.778 156.658 L 512.008 156.658 L 512.008 185.348 L 517.618 185.348 L 517.618 176.088 L 519.748 176.088 L 526.638 185.348 L 533.138 185.348 L 525.478 175.088 C 526.47 174.619 527.36 173.96 528.098 173.148 Z M 525.288 166.388 C 525.385 167.569 525.027 168.742 524.288 169.668 C 523.374 170.566 522.115 171.023 520.838 170.918 L 517.678 170.918 L 517.678 161.838 L 520.838 161.838 C 522.114 161.72 523.378 162.166 524.298 163.058 C 525.041 164.001 525.396 165.193 525.288 166.388 Z" style="fill: rgb(226, 15, 51);"/>
  <path class="cls-3" d="M 555.288 171.288 C 554.698 170.738 553.898 169.968 553.228 169.288 L 548.658 164.908 C 548.168 164.428 547.658 163.738 547.798 163.098 C 548.064 162.496 548.625 162.075 549.278 161.988 C 550.452 161.795 551.628 162.313 552.278 163.308 L 552.698 163.818 L 557.098 160.288 L 556.658 159.758 C 555.606 158.431 554.228 157.397 552.658 156.758 C 551.252 156.234 549.727 156.12 548.258 156.428 C 546.935 156.676 545.698 157.262 544.668 158.128 C 543.599 159.005 542.819 160.182 542.428 161.508 C 542.06 162.77 542.088 164.113 542.508 165.358 C 542.955 166.721 543.74 167.95 544.788 168.928 L 548.128 172.088 C 548.278 172.238 550.278 174.198 551.498 175.338 C 552.418 176.228 552.778 177.038 552.568 177.758 C 552.159 178.75 551.252 179.448 550.188 179.588 C 549.475 179.741 548.731 179.671 548.058 179.388 C 547.097 178.991 546.268 178.328 545.668 177.478 L 545.258 176.928 L 540.808 180.418 L 541.218 180.948 C 542.467 182.587 544.127 183.866 546.028 184.658 C 547.712 185.294 549.537 185.46 551.308 185.138 C 554.433 184.573 556.995 182.338 557.978 179.318 C 558.382 177.936 558.354 176.464 557.898 175.098 C 557.387 173.616 556.486 172.3 555.288 171.288 Z" style="fill: rgb(226, 15, 51);"/>
  <path class="cls-3" d="M 577.188 156.658 L 568.408 156.658 L 568.408 185.348 L 574.018 185.348 L 574.018 176.088 L 577.188 176.088 C 579.941 176.243 582.619 175.165 584.498 173.148 C 586.131 171.272 586.986 168.844 586.888 166.358 C 586.974 163.875 586.12 161.451 584.498 159.568 C 582.604 157.577 579.933 156.514 577.188 156.658 Z M 581.718 166.358 C 581.778 167.541 581.425 168.708 580.718 169.658 C 579.784 170.548 578.514 170.995 577.228 170.888 L 574.058 170.888 L 574.058 161.838 L 577.228 161.838 C 578.513 161.74 579.78 162.195 580.708 163.088 C 581.419 164.026 581.777 165.183 581.718 166.358 Z" style="fill: rgb(226, 15, 51);"/>
  <path class="cls-3" d="M 591.888 185.348 L 598.068 185.348 L 600.388 179.488 L 609.208 179.488 L 611.538 185.348 L 617.668 185.348 L 604.798 154.348 Z M 607.138 174.348 L 602.468 174.348 L 604.798 168.488 Z" style="fill: rgb(226, 15, 51);"/>
  <path class="cls-3" d="M 644.698 177.168 C 640.037 181.998 631.895 179.971 630.042 173.519 C 629.152 170.418 630.047 167.079 632.368 164.838 C 635.527 161.673 640.567 161.41 644.038 164.228 L 645.128 165.128 L 645.128 158.208 L 644.458 157.928 L 644.138 157.788 C 640.563 156.303 636.544 156.303 632.968 157.788 C 631.252 158.48 629.696 159.519 628.398 160.838 C 625.688 163.526 624.171 167.191 624.188 171.008 C 624.176 174.813 625.693 178.463 628.398 181.138 C 629.706 182.453 631.254 183.506 632.958 184.238 C 634.722 184.979 636.616 185.36 638.528 185.358 C 640.455 185.356 642.361 184.972 644.138 184.228 C 644.939 183.882 645.711 183.475 646.448 183.008 L 646.758 182.808 L 646.758 174.708 L 645.568 176.198 C 645.288 176.538 645.008 176.838 644.698 177.168 Z" style="fill: rgb(226, 15, 51);"/>
  <polygon class="cls-3" points="675.398 161.828 675.398 156.658 657.658 156.658 657.658 185.348 675.398 185.348 675.398 180.138 663.268 180.138 663.268 172.998 673.258 172.998 673.258 167.788 663.268 167.788 663.268 161.828 675.398 161.828" style="fill: rgb(226, 15, 51);"/>
  <polygon class="cls-4" points="332.248 105.508 333.218 106.578 333.218 105.128 333.218 25.658 333.218 25.098 332.668 25.098 315.928 25.098 315.368 25.098 315.368 25.658 315.368 86.628 315.368 86.848 315.518 87.008 332.248 105.508" style="fill: rgb(255, 255, 255);"/>
  <path class="cls-4" d="M 402.718 55.368 L 380.578 55.368 L 380.578 55.498 C 373.096 55.979 368.939 64.379 373.096 70.619 C 374.78 73.146 377.547 74.744 380.578 74.938 L 380.578 75.068 L 402.718 75.068 C 419.904 75.432 430.251 94.264 421.344 108.965 C 417.384 115.5 410.358 119.557 402.718 119.718 L 337.288 119.718 L 316.358 95.548 L 249.648 21.838 L 248.648 20.768 L 248.648 117.598 L 244.578 117.598 L 204.908 22.008 L 204.398 20.768 L 203.878 22.008 L 191.668 51.358 L 178.128 83.898 L 164.988 115.418 L 164.088 117.598 L 144.908 117.598 L 127.648 94.478 L 132.858 94.478 C 135.148 94.478 137.518 94.478 139.858 94.258 L 140.438 94.198 C 141.008 94.148 141.588 94.088 142.128 93.988 C 145.132 93.511 148.018 92.473 150.638 90.928 C 151.47 90.416 152.26 89.838 152.998 89.198 C 153.952 88.431 154.863 87.613 155.728 86.748 C 156.028 86.438 156.318 86.138 156.618 85.808 L 156.738 85.678 C 162.688 79.118 165.958 69.798 165.958 59.438 C 165.958 48.808 162.778 39.668 156.748 33.018 C 152.148 27.838 143.488 21.658 128.338 21.658 L 77.708 21.658 L 77.708 37.948 L 77.708 37.948 L 77.708 79.608 L 77.708 80.168 L 77.708 134.978 L 77.708 134.978 L 78.268 135.028 L 96.378 135.028 L 96.378 128.898 L 96.378 128.338 L 96.378 101.538 L 96.378 101.538 L 96.378 81.078 L 108.118 96.838 L 108.238 96.988 L 108.388 97.188 L 109.388 98.518 L 109.388 98.398 L 116.548 107.998 L 136.548 134.808 L 136.718 135.028 L 138.158 135.028 L 138.718 135.028 L 176.588 135.028 L 176.728 134.678 L 185.728 112.028 L 218.078 112.028 L 217.778 111.268 L 211.778 96.218 L 211.638 95.868 L 192.288 95.868 L 204.478 65.228 L 232.168 134.678 L 232.308 135.028 L 266.388 135.028 L 266.388 66.918 L 332.388 139.238 L 332.548 139.418 L 402.748 139.418 C 435.099 139.418 455.318 104.398 439.143 76.381 C 431.636 63.378 417.762 55.368 402.748 55.368 Z M 127.578 79.618 L 96.378 79.618 L 96.378 37.958 L 127.578 37.958 C 133.066 37.958 138.323 40.164 142.168 44.078 C 153.477 55.468 148.216 74.828 132.698 78.928 C 131.027 79.369 129.307 79.601 127.578 79.618 Z" style="fill: rgb(255, 255, 255);"/>
  <path class="cls-4" d="M 444.178 23.188 L 382.358 23.188 C 350.027 23.188 329.819 58.188 345.985 86.188 C 353.488 99.183 367.353 107.188 382.358 107.188 L 404.498 107.188 L 404.498 106.948 C 411.892 105.752 415.218 96.999 410.485 91.194 C 408.979 89.349 406.849 88.119 404.498 87.738 L 404.498 87.488 L 382.358 87.488 C 365.172 87.125 354.825 68.293 363.733 53.592 C 367.693 47.057 374.719 43 382.358 42.838 L 409.068 42.838 C 412.573 42.983 416.058 43.448 419.478 44.228 L 419.918 44.348 L 420.338 44.478 L 420.718 44.608 L 421.488 44.938 L 421.488 44.838 C 430.538 47.428 438.408 53.838 443.698 62.978 L 444.698 64.778 L 444.698 23.178 Z" style="fill: rgb(255, 255, 255);"/>
  <path class="cls-4" d="M 674.378 23.428 L 623.068 99.888 L 571.768 23.428 L 570.768 21.908 L 570.768 83.408 C 570.708 97.248 562.828 126.528 533.458 138.338 L 530.798 139.418 L 589.088 139.418 L 589.088 82.218 L 622.628 132.058 L 623.088 132.738 L 623.558 132.058 L 656.958 82.228 L 656.958 139.418 L 675.418 139.418 L 675.418 21.908 Z" style="fill: rgb(255, 255, 255);"/>
  <path class="cls-5" d="M 560.388 19.548 L 560.388 80.108 C 560.388 93.568 554.958 125.728 507.308 138.858 C 493.468 135.058 482.265 129.392 473.698 121.858 L 499.898 98.108 L 499.898 98.108 L 502.018 96.188 C 503.41 100.268 508.697 101.312 511.534 98.066 C 512.434 97.037 512.926 95.715 512.918 94.348 L 512.918 67.378 C 522.999 63.052 524.616 49.436 515.829 42.869 C 507.042 36.302 494.441 41.71 493.148 52.603 C 492.403 58.874 495.875 64.888 501.678 67.378 L 501.678 94.148 L 499.898 95.348 L 499.898 95.348 L 468.538 116.698 C 459.266 106.277 454.189 92.787 454.288 78.838 L 454.378 19.568 L 454.288 19.568 C 454.288 19.568 504.288 -13.082 560.388 19.548 Z" style="fill: url(#linear-gradient);"/>
  <path class="cls-6" d="M 526.138 54.418 C 526.135 61.944 521.653 68.746 514.738 71.718 L 514.738 100.888 C 514.738 106.6 508.555 110.17 503.608 107.314 C 501.313 105.989 499.898 103.539 499.898 100.888 L 499.898 98.088 L 499.898 98.088 L 502.018 96.168 C 503.41 100.248 508.697 101.292 511.534 98.046 C 512.434 97.017 512.926 95.695 512.918 94.328 L 512.918 67.378 C 522.999 63.052 524.616 49.436 515.829 42.869 C 507.042 36.302 494.441 41.71 493.148 52.603 C 492.403 58.874 495.875 64.888 501.678 67.378 L 501.678 94.148 L 499.898 95.348 L 499.898 95.348 L 499.898 71.718 C 486.572 66.014 484.419 48.023 496.022 39.335 C 507.625 30.647 524.282 37.777 526.005 52.17 C 526.094 52.916 526.139 53.667 526.138 54.418 Z" style="fill: rgb(117, 21, 45);"/>
</svg>