<svg id="Layer_1" data-name="Layer 1" xmlns="http://www.w3.org/2000/svg" width="141.96" height="150" viewBox="0 0 141.96 150"><defs><style>.cls-1{fill:#e21334;}.cls-2{fill:#1b2c4d;}</style></defs><circle class="cls-1" cx="71.34" cy="9.82" r="9.82" transform="translate(13.95 53.32) rotate(-45)"/><path class="cls-2" d="M80,61V32.94a8.62,8.62,0,1,0-17.24,0V61A21.62,21.62,0,0,1,80,61Z"/><circle class="cls-1" cx="10.54" cy="115.56" r="9.82" transform="translate(-76.97 39.35) rotate(-43.74)"/><path class="cls-2" d="M34.87,111.46,58.1,98.06A21.7,21.7,0,0,1,49.76,83L26.25,96.53a8.62,8.62,0,0,0,8.62,14.93Z"/><circle class="cls-1" cx="132.14" cy="115.56" r="9.82" transform="translate(-26.23 191.29) rotate(-66.73)"/><path class="cls-2" d="M116.43,96.53,92.93,83a21.7,21.7,0,0,1-2.81,8.76,21.47,21.47,0,0,1-5.54,6.33l23.23,13.4a8.62,8.62,0,0,0,8.62-14.93Z"/><path class="cls-1" d="M64.59,102.86c1.94.12,4.16.18,6.41.18s4.47-.06,6.41-.18a.43.43,0,0,0,.38-.31,4.28,4.28,0,0,0-.09-2.68,1,1,0,0,0-.65-.47H77c-.58,0-1.21,0-1.92,0l-2.77,0-2.78,0c-2,0-3.44,0-4.77.16a.41.41,0,0,0-.24.11c-.72.63-.39,2.46-.27,2.92A.42.42,0,0,0,64.59,102.86Z"/><path class="cls-1" d="M77.78,106.92a4.34,4.34,0,0,0,0-2.58.86.86,0,0,0-.55-.44.22.22,0,0,0-.11,0l-2,0-2.84,0-2.84,0c-2,0-3.52,0-4.88.17a.41.41,0,0,0-.35.24,4.6,4.6,0,0,0,0,2.7.41.41,0,0,0,.27.23,13.45,13.45,0,0,0,3.39.34l1.54,0,1.57,0c.52,0,1,0,1.56,0l1.55,0h0a13.38,13.38,0,0,0,3.38-.34A.41.41,0,0,0,77.78,106.92Z"/><path class="cls-1" d="M67.25,108.46a.42.42,0,0,0-.33.16.39.39,0,0,0-.07.36c.46,1.79,2.41,2.6,4.15,2.6s3.69-.81,4.15-2.6a.43.43,0,0,0-.08-.36.4.4,0,0,0-.32-.16Z"/><path class="cls-1" d="M72.9,64.94V96.1a2.2,2.2,0,0,0,2.21,2.21l1.71,0A6,6,0,0,0,79,97.82a18.57,18.57,0,0,0-3.42-35A2.19,2.19,0,0,0,72.9,64.94Zm4.34,1.47a.73.73,0,0,1,1-.37,16,16,0,0,1,8.41,8.72.73.73,0,0,1-.41.95.86.86,0,0,1-.27.05.75.75,0,0,1-.68-.46,14.52,14.52,0,0,0-7.64-7.93A.72.72,0,0,1,77.24,66.41Z"/><path class="cls-1" d="M63.45,90.19c-1.35-.76-1.67-.68-2.39.68a3.66,3.66,0,0,0-.12,3.46c1.16,2.46,3.25,3.42,5.83,3.47,3.1,0,5.22-2.46,4.77-5.82-1.73,1.56-4.43.46-5.77,2.72.17-.94.64-1.66.75-2.43a10.32,10.32,0,0,0-.23-2.45l.39-.11a7.38,7.38,0,0,1,.63,1.17c.47,1.38,1,1.65,2.33,1.14a3.1,3.1,0,0,0,2.09-2.94c0-1.33,0-2.66,0-4V82.55c-.39.07-.54,0-.63.12a6.05,6.05,0,0,1-6.44.45c-.34-.17-.83,0-1.24-.05-1.12-.13-2.63.1-3.29-.53A8.53,8.53,0,0,0,55.22,80c-1.59-.25-2-.43-2.22,1.19a9.88,9.88,0,0,0,.41,3.2,17.44,17.44,0,0,0,.63,2.1c.23.68.49,1.35.8,2.23,2.3-3.47,3.58-4.39,5-3.61a10.79,10.79,0,0,0-2.42,1.42A5,5,0,0,0,56.16,89a5.62,5.62,0,0,0,.32,2.74,4.74,4.74,0,0,0,3.5,3,5.69,5.69,0,0,1,1.51-5.92c.21-.21.07-.79.08-1.2V85.87l.39,0a11.3,11.3,0,0,0,1,2.63A11.34,11.34,0,0,0,65,90.31l-.17.35A8.85,8.85,0,0,1,63.45,90.19Z"/><path class="cls-1" d="M54.3,78.1a2.72,2.72,0,0,0,2.92,1.43,2.68,2.68,0,0,0,2.61-1.92c.13-.41.31-.79.47-1.19l.4.13a3.27,3.27,0,0,1-.83,2.79,1.9,1.9,0,0,0-.41,1.31,2.73,2.73,0,0,0,3.86,1.26c-.14-.39-.32-.78-.42-1.18a9.11,9.11,0,0,1-.14-1.17l.47-.12c.15.32.31.63.44,1a3.69,3.69,0,0,0,3.27,2.52,4.67,4.67,0,0,0,4.5-1.9,1.44,1.44,0,0,0,.27-.83c0-3,0-5.91,0-8.86,0-.77-.44-1-1.14-1.07a3.53,3.53,0,0,0-3.9,3A1.36,1.36,0,0,0,67.33,75a5,5,0,0,1,.9.88l-.17.41a5.62,5.62,0,0,0-4.83-.69,4.33,4.33,0,0,1,1.66-1.11c.8-.31,1.55-2.38.92-2.89a5.34,5.34,0,0,1-2.07-6,2.88,2.88,0,0,0-3.64,1.48,6.52,6.52,0,0,0-.77,4.12c.31,1.13,1.79,2,3,3.16a13,13,0,0,1-2-.52c-2-.88-2.38-2.7-2.26-4.7-1.76.52-2.66,2-2.83,3.92a3.63,3.63,0,0,1-.65,1.68A3.18,3.18,0,0,0,54.3,78.1Z"/><path class="cls-1" d="M67.36,70.23a5.45,5.45,0,0,1,2.56-1c1.86-.1,1.81,0,1.9-2a18.92,18.92,0,0,0-.4-2.39,2.88,2.88,0,0,0-3.34-2.16,4.12,4.12,0,0,0-3.5,3.16,3.88,3.88,0,0,0,1.23,4.3A1.07,1.07,0,0,0,67.36,70.23Z"/><path class="cls-1" d="M8.34,98.22a33.29,33.29,0,0,1,.89-13A.29.29,0,0,0,8.74,85a5.53,5.53,0,0,1-2.4,1.61c0-1.22,0-2.43.12-3.64A85.46,85.46,0,0,1,8,70.52a106.48,106.48,0,0,1,3.09-12,62.65,62.65,0,0,1,5-11.44,65.32,65.32,0,0,1,7.16-10.29c1.33-1.62,2.77-3.15,4.25-4.65L28.57,31c.38-.36.76-.73,1.16-1.07.79-.7,1.57-1.41,2.4-2.06A65.84,65.84,0,0,1,42.6,20.75c.94-.5,1.86-1,2.83-1.47l1.43-.7,1.46-.64c1-.46,2-.83,3-1.23s2-.72,3-1.09l-.12-.44a68.19,68.19,0,0,0-41.29,30A76.93,76.93,0,0,0,6.8,57,53.35,53.35,0,0,0,3.45,69.8,57.9,57.9,0,0,0,3.23,83c.11,1.11.26,2.22.43,3.32A8.9,8.9,0,0,1,.52,83.4a.29.29,0,0,0-.51.26c1.79,5.69,6.1,12.28,7.81,14.76A.29.29,0,0,0,8.34,98.22Z"/><path class="cls-1" d="M88.56,16.26a33.44,33.44,0,0,1,9.85,8.49.29.29,0,0,0,.51-.23,5.53,5.53,0,0,1,.14-2.87l1.2.72a83.19,83.19,0,0,1,10.34,7.44c1.63,1.35,3.19,2.77,4.73,4.21.74.75,1.54,1.45,2.26,2.22.36.38.74.76,1.11,1.13s.72.78,1.08,1.17a60.75,60.75,0,0,1,7.71,10.1,67.93,67.93,0,0,1,8.89,23.92c.1.52.17,1.06.24,1.59l.23,1.6c.11,1.07.23,2.14.32,3.22s.14,2.15.17,3.24,0,2.16,0,3.24q-.06,3.26-.44,6.49c-.23,2.16-.58,4.31-1,6.45l.44.11c.61-2.11,1.13-4.25,1.54-6.42s.7-4.35.89-6.55c.09-1.1.16-2.21.2-3.31s0-2.22,0-3.33-.06-2.21-.1-3.32l-.12-1.66c0-.56-.08-1.11-.15-1.66a71.52,71.52,0,0,0-2.71-13.08,69.93,69.93,0,0,0-5.27-12.35,73.55,73.55,0,0,0-7.46-11.24,57,57,0,0,0-4.58-5l-1.26-1.14c-.42-.38-.82-.78-1.27-1.12-.88-.72-1.74-1.45-2.66-2.1a57.42,57.42,0,0,0-11.69-6.72l-.3-.12a9.67,9.67,0,0,1,3.66-.49.29.29,0,0,0,.1-.56c-5.62-2-13.49-2.48-16.5-2.6A.28.28,0,0,0,88.56,16.26Z"/><path class="cls-1" d="M118.77,127.1A33.28,33.28,0,0,1,107,132.71a.28.28,0,0,0,0,.55,5.5,5.5,0,0,1,2.65,1.36c-1.08.63-2.17,1.23-3.27,1.81a87,87,0,0,1-11.67,5.06,100.19,100.19,0,0,1-12.17,3.39A62.69,62.69,0,0,1,70,146.28a67.81,67.81,0,0,1-12.71-1.13,68.86,68.86,0,0,1-23.89-9.23c-.92-.57-1.8-1.19-2.71-1.78s-1.74-1.28-2.62-1.92-1.7-1.35-2.55-2L23,128.05l-.33.32,2.3,2.35c.8.75,1.6,1.51,2.41,2.25s1.67,1.43,2.53,2.12,1.74,1.36,2.64,2A68.73,68.73,0,0,0,44,143.78a69.47,69.47,0,0,0,12.6,4.34,70.62,70.62,0,0,0,13.27,1.81,75.82,75.82,0,0,0,13.46-.6,52.71,52.71,0,0,0,13-3.58,58,58,0,0,0,11.74-6.58c.89-.66,1.76-1.33,2.61-2a9,9,0,0,1-1,4.05.29.29,0,0,0,.47.32c4.08-4.35,7.7-11.35,9-14.06A.29.29,0,0,0,118.77,127.1Z"/></svg>