<svg id="Layer_1" data-name="Layer 1" xmlns="http://www.w3.org/2000/svg" width="1419.3" height="1165.08" viewBox="0 0 1419.3 1165.08"><defs><style>.cls-1{fill:#1b2c4d;}.cls-2{fill:#e21334;}</style></defs><rect class="cls-1" y="995.53" width="12.67" height="61.31"/><polygon class="cls-1" points="57.19 1029.62 20.98 989.91 20.98 1056.84 33.66 1056.84 33.66 1022.66 69.95 1062.37 69.95 995.53 57.19 995.53 57.19 1029.62"/><polygon class="cls-1" points="114.55 1029.62 78.34 989.91 78.34 1056.84 91.02 1056.84 91.02 1022.66 127.3 1062.37 127.3 995.53 114.55 995.53 114.55 1029.62"/><path class="cls-1" d="M185.61,1004.44a31.77,31.77,0,0,0-9.75-6.52,31.07,31.07,0,0,0-23.86,0,30.19,30.19,0,0,0-9.77,6.55,32.55,32.55,0,0,0-6.59,9.75,31.15,31.15,0,0,0-2.4,12,30.46,30.46,0,0,0,2.4,11.91,30.9,30.9,0,0,0,6.61,9.75,30.59,30.59,0,0,0,9.75,6.6h0a30.44,30.44,0,0,0,11.9,2.39,31.18,31.18,0,0,0,12-2.4,32.48,32.48,0,0,0,9.74-6.6,30.65,30.65,0,0,0,8.93-21.66,31.44,31.44,0,0,0-2.4-12A31.8,31.8,0,0,0,185.61,1004.44Zm-3.73,21.74a17.86,17.86,0,0,1-5.29,12.7,18.3,18.3,0,0,1-25.38,0,17.88,17.88,0,0,1,0-25.39,18.3,18.3,0,0,1,25.38,0A17.85,17.85,0,0,1,181.88,1026.18Z" transform="translate(0.59)"/><polygon class="cls-1" points="232.81 995.53 218.84 1030.56 203.86 995.53 189.9 995.53 219.18 1062.26 246.56 995.53 232.81 995.53"/><path class="cls-1" d="M230.57,1056.84H244.5l4.9-12.35h18l4.9,12.35h13.85l-27.75-66.9Zm32.13-24.09h-8.58l4.29-10.78Z" transform="translate(0.59)"/><polygon class="cls-1" points="278.55 1007.27 294.39 1007.27 294.39 1056.84 307.15 1056.84 307.15 1007.27 323 1007.27 323 995.53 278.55 995.53 278.55 1007.27"/><rect class="cls-1" x="327.66" y="995.53" width="12.67" height="61.31"/><path class="cls-1" d="M398.57,1004.44a31.77,31.77,0,0,0-9.75-6.52,31.1,31.1,0,0,0-23.87,0,30.1,30.1,0,0,0-9.76,6.55,32.34,32.34,0,0,0-6.6,9.75,31.15,31.15,0,0,0-2.4,12A30.88,30.88,0,0,0,365,1054.44h0a30.47,30.47,0,0,0,11.9,2.39,31.27,31.27,0,0,0,12-2.4,32.73,32.73,0,0,0,9.74-6.6,30.76,30.76,0,0,0,8.92-21.66,31.22,31.22,0,0,0-2.4-12A32.07,32.07,0,0,0,398.57,1004.44Zm-3.74,21.74a17.82,17.82,0,0,1-5.29,12.7,18.3,18.3,0,0,1-25.38,0,17.88,17.88,0,0,1,0-25.39,18.31,18.31,0,0,1,25.39,0A17.84,17.84,0,0,1,394.83,1026.18Z" transform="translate(0.59)"/><polygon class="cls-1" points="450.83 995.53 450.83 1029.62 414.63 989.91 414.63 1056.84 427.3 1056.84 427.3 1022.66 463.59 1062.37 463.59 995.53 450.83 995.53"/><rect class="cls-1" x="642.48" y="995.53" width="12.68" height="61.31"/><polygon class="cls-1" points="699.68 1029.62 663.47 989.91 663.47 1056.84 676.15 1056.84 676.15 1022.66 712.43 1062.37 712.43 995.53 699.68 995.53 699.68 1029.62"/><polygon class="cls-1" points="717.1 1007.27 732.95 1007.27 732.95 1056.84 745.7 1056.84 745.7 1007.27 761.55 1007.27 761.55 995.53 717.1 995.53 717.1 1007.27"/><polygon class="cls-1" points="766.21 1056.84 804.45 1056.84 804.45 1045.02 778.89 1045.02 778.89 1030.81 799.95 1030.81 799.95 1018.99 778.89 1018.99 778.89 1007.27 804.45 1007.27 804.45 995.53 766.21 995.53 766.21 1056.84"/><path class="cls-1" d="M832.77,1035.09h10.88v7.62a16.71,16.71,0,0,1-1.94.67l-1.15.17-.53.26-.43.08-1,.12a2.35,2.35,0,0,0-.6.08H836.6l-.08.08a17.87,17.87,0,0,1-12.66-5.29,18.18,18.18,0,0,1-4.59-7.83,19.78,19.78,0,0,1-.66-4.21,2.57,2.57,0,0,1-.05-.66,5.76,5.76,0,0,1,.08-1.08v-.68c.06-.56.16-1.13.27-1.69l.16-.58a16.61,16.61,0,0,1,2.18-5.33l.75-1.12c.13-.21.27-.42.42-.62l1,0v-1.11a.24.24,0,0,0,.09-.08l.43-.41a14.8,14.8,0,0,1,2.92-2.41l.51-.3a17.46,17.46,0,0,1,9.22-2.53l1.82.08a1.7,1.7,0,0,0,.38,0l.59-1.74-.13,1.82c.21,0,.44.08.86.14l.34.1.94.2a21.72,21.72,0,0,1,3,1.13,16.68,16.68,0,0,1,3.51,2.23l3,2.62v-14.64l-.08-1.83h-1.29l-.33-.15a28.42,28.42,0,0,0-9.9-2.49,4.29,4.29,0,0,0-1.35-.16h-1.39a30.73,30.73,0,0,0-21.66,8.92,31.47,31.47,0,0,0-6.6,9.75,32.14,32.14,0,0,0-2.4,10.51v1.47c0,1,.08,2,.16,3a29.85,29.85,0,0,0,2.23,8.88,30.71,30.71,0,0,0,6.59,9.72,26.57,26.57,0,0,0,6.71,5.09,17,17,0,0,0,3.1,1.56l1.53.6a4,4,0,0,0,.74.25l.1,0a29.33,29.33,0,0,0,9.5,1.51h1.58a30.91,30.91,0,0,0,11-2.65l.71-.35.23-.12h.06l.35,0,1.4-1a2.17,2.17,0,0,0,.42-.27h0a1.79,1.79,0,0,0,.24-.12l3.8-2.54v-26.57H832.77ZM838,997.36Z" transform="translate(0.59)"/><path class="cls-1" d="M896.81,1031a21.46,21.46,0,0,0,5.13-14.52c0-5.84-1.77-10.89-5.11-14.57-2.56-2.91-7.38-6.37-15.75-6.37H862.15v61.31h12.68v-19.5h3.85l14.53,19.5H908L891.63,1035A17.92,17.92,0,0,0,896.81,1031Zm-6.68-14.52c0,2.91-.7,5.13-2.1,6.63-1.47,1.66-3.81,2.5-6.95,2.5h-6.25v-18.25h6.25q4.78,0,7,2.44C889.43,1011.27,890.13,1013.51,890.13,1016.47Z" transform="translate(0.59)"/><rect class="cls-1" x="910.15" y="995.53" width="12.68" height="61.31"/><polygon class="cls-1" points="999.1 1014.78 984.95 995.53 971.86 995.53 970.68 995.53 927.4 995.53 927.4 1007.27 943.25 1007.27 943.25 1056.84 956 1056.84 956 1007.27 971.86 1007.27 971.86 997.12 992.76 1025.46 992.76 1056.84 1005.44 1056.84 1005.44 1025.46 1027.42 995.53 1013.25 995.53 999.1 1014.78"/><rect class="cls-1" x="1053.91" y="996.14" width="11.46" height="60.09"/><polygon class="cls-1" points="1111.11 1031.19 1074.9 991.49 1074.9 1056.23 1086.35 1056.23 1086.35 1021.09 1122.64 1060.8 1122.64 996.14 1111.11 996.14 1111.11 1031.19"/><path class="cls-1" d="M1159.06,1026.92c-1.24-1.15-2.94-2.77-4.35-4.18l-9.63-9.24c-1.07-1-2.25-2.57-1.85-4a4.12,4.12,0,0,1,3.25-2.47c1.62-.31,4-.08,6.45,2.84l.76.93,9-7.21-.79-1a20.76,20.76,0,0,0-8.37-6.2,16.48,16.48,0,0,0-9.18-.67,16,16,0,0,0-7.49,3.53,14.25,14.25,0,0,0-4.65,7,13.56,13.56,0,0,0,.16,8,17.73,17.73,0,0,0,4.75,7.44l7.05,6.66c.32.31,4.53,4.44,7.09,6.86,2,1.91,2.79,3.69,2.32,5.29-.58,1.91-2.63,3.51-5.17,4a7.57,7.57,0,0,1-4.58-.42,11.68,11.68,0,0,1-5.13-4.09l-.75-1-9.08,7.12.75,1a24.28,24.28,0,0,0,10.07,7.77,19.9,19.9,0,0,0,7.28,1.32,19.42,19.42,0,0,0,3.74-.33c6.69-1.32,12.15-6.08,13.91-12.12a14.9,14.9,0,0,0-.16-8.79A18.51,18.51,0,0,0,1159.06,1026.92Z" transform="translate(0.59)"/><polygon class="cls-1" points="1167.7 1006.66 1183.55 1006.66 1183.55 1056.23 1195.08 1056.23 1195.08 1006.66 1210.93 1006.66 1210.93 996.14 1167.7 996.14 1167.7 1006.66"/><rect class="cls-1" x="1216.81" y="996.14" width="11.46" height="60.09"/><polygon class="cls-1" points="1234.07 1006.66 1249.92 1006.66 1249.92 1056.23 1261.45 1056.23 1261.45 1006.66 1277.3 1006.66 1277.3 996.14 1234.07 996.14 1234.07 1006.66"/><path class="cls-1" d="M1315.7,1035.43c0,3.07-1,5.32-3,6.87-4.18,3.19-12.12,3.12-16.07,0a8.17,8.17,0,0,1-3.1-6.88V996.14h-11.45v39.29a20.59,20.59,0,0,0,2.06,9.31,18.22,18.22,0,0,0,5.48,6.65,25.8,25.8,0,0,0,30.09,0,20.06,20.06,0,0,0,5.48-6.66,21.54,21.54,0,0,0,2.06-9.3V996.14H1315.7Z" transform="translate(0.59)"/><polygon class="cls-1" points="1333.16 1006.66 1349.01 1006.66 1349.01 1056.23 1360.55 1056.23 1360.55 1006.66 1376.39 1006.66 1376.39 996.14 1333.16 996.14 1333.16 1006.66"/><polygon class="cls-1" points="1419.3 1006.66 1419.3 996.14 1382.28 996.14 1382.28 1056.23 1419.3 1056.23 1419.3 1045.63 1393.73 1045.63 1393.73 1030.2 1414.79 1030.2 1414.79 1019.6 1393.73 1019.6 1393.73 1006.66 1419.3 1006.66"/><path class="cls-2" d="M488.58,1014.92a40,40,0,0,1,7.77-2.52,39,39,0,0,1,8.14-.84q9.11,0,13.85,4.47t4.74,13.7q0,6.84.11,13.56t.56,13.55H513.6c-.14-1.09-.26-2.19-.36-3.29s-.15-2.22-.15-3.34h-.16a14.85,14.85,0,0,1-2.54,3.23,15.45,15.45,0,0,1-3.28,2.42,16.35,16.35,0,0,1-7.86,2,18.5,18.5,0,0,1-5.67-.88,16.13,16.13,0,0,1-4.95-2.55,12.83,12.83,0,0,1-3.51-4.13,11.64,11.64,0,0,1-1.32-5.6,18,18,0,0,1,.48-4.19,11.55,11.55,0,0,1,1.74-3.85,13,13,0,0,1,4.07-3.86,20.19,20.19,0,0,1,5.17-2.16,31.59,31.59,0,0,1,5.77-.94q3-.21,5.89-.21l2.9,0c.95,0,1.88,0,2.77,0a15,15,0,0,0-.59-4.49,6.69,6.69,0,0,0-1.83-3,7.17,7.17,0,0,0-3.12-1.64,17.18,17.18,0,0,0-4.45-.51,20.76,20.76,0,0,0-7.24,1.26,23.93,23.93,0,0,0-6.4,3.57ZM494.8,1044a4.51,4.51,0,0,0,.67,2.54,5.52,5.52,0,0,0,1.72,1.68,7.17,7.17,0,0,0,2.35.92,11.87,11.87,0,0,0,2.56.28,9.87,9.87,0,0,0,4.76-1.08,9.23,9.23,0,0,0,3.25-2.85,12.66,12.66,0,0,0,1.87-4.09,18.5,18.5,0,0,0,.61-4.79v-.25h-7a19.51,19.51,0,0,0-3.73.38,11.39,11.39,0,0,0-3.51,1.28,7.82,7.82,0,0,0-2.58,2.37A6.24,6.24,0,0,0,494.8,1044Z" transform="translate(0.59)"/><path class="cls-2" d="M527.8,1012.56h10.91v6.05h.21a17.61,17.61,0,0,1,6.36-5.33,18.59,18.59,0,0,1,8.16-1.72,16.27,16.27,0,0,1,6.88,1.32,12.33,12.33,0,0,1,4.66,3.63,15.06,15.06,0,0,1,2.65,5.5,27,27,0,0,1,.84,6.88v27.95H557v-23.63c0-1.48,0-2.9-.11-4.26a15,15,0,0,0-.86-4.17,6.07,6.07,0,0,0-2.43-3.38,8.2,8.2,0,0,0-4.12-.9,8,8,0,0,0-4.82,1.4,10.72,10.72,0,0,0-3.11,3.57,16.68,16.68,0,0,0-1.68,4.74,26.44,26.44,0,0,0-.5,5v21.65H527.8Z" transform="translate(0.59)"/><path class="cls-2" d="M603.19,1051.85H603a17.27,17.27,0,0,1-6.11,4.59,18.53,18.53,0,0,1-7.49,1.45,17.7,17.7,0,0,1-8.65-2,16.49,16.49,0,0,1-5.72-5.18,21.86,21.86,0,0,1-3.19-7.45,38,38,0,0,1-1-8.71,38.67,38.67,0,0,1,1-8.73,21.59,21.59,0,0,1,3.17-7.35,16,16,0,0,1,5.73-5.07,18.1,18.1,0,0,1,8.69-1.89,17.9,17.9,0,0,1,7.39,1.49,15.48,15.48,0,0,1,5.83,4.68h.21V992.38h11.5v64.46H603.19Zm-10.72-31.35a7.74,7.74,0,0,0-4.72,1.38,9.77,9.77,0,0,0-2.93,3.5,16.31,16.31,0,0,0-1.49,4.66,31.08,31.08,0,0,0-.42,4.85,22.72,22.72,0,0,0,.53,4.7,16.35,16.35,0,0,0,1.68,4.56,10.57,10.57,0,0,0,3,3.44,7.37,7.37,0,0,0,4.52,1.36,8.14,8.14,0,0,0,4.78-1.34,10.53,10.53,0,0,0,3.12-3.44,16,16,0,0,0,1.71-4.64,24.35,24.35,0,0,0,.53-4.93,21.87,21.87,0,0,0-.57-4.89,15,15,0,0,0-1.8-4.53,10.59,10.59,0,0,0-3.2-3.36A8.29,8.29,0,0,0,592.47,1020.5Z" transform="translate(0.59)"/><path class="cls-2" d="M286.79,1137.08h15.85v6.14H286.79v19.59H280v-43.38h26.08v6.08h-19.3Z" transform="translate(0.59)"/><path class="cls-2" d="M320.28,1161.12a21.71,21.71,0,0,1-13.27-20,22.21,22.21,0,0,1,1.7-8.48,23.06,23.06,0,0,1,4.67-6.9,21.34,21.34,0,0,1,6.9-4.62,21.71,21.71,0,0,1,8.42-1.69,22.25,22.25,0,0,1,8.49,1.69,21.32,21.32,0,0,1,11.51,11.52,22.21,22.21,0,0,1,1.7,8.48,21.8,21.8,0,0,1-6.31,15.32,23.21,23.21,0,0,1-6.9,4.68,22.25,22.25,0,0,1-8.49,1.69A21.71,21.71,0,0,1,320.28,1161.12Zm-2.1-30.53a14.84,14.84,0,1,0,10.52-4.38A14.81,14.81,0,0,0,318.18,1130.59Z" transform="translate(0.59)"/><path class="cls-2" d="M388.38,1162.81h-7.66l-10.94-14.67h-5v14.67H358v-43.38H370.9c5.73,0,9.06,2.34,10.81,4.32a16,16,0,0,1,0,20.06,12.15,12.15,0,0,1-5,3.33Zm-17.48-20.75c2.8,0,4.91-.82,6.26-2.34a10.13,10.13,0,0,0,0-11.87c-1.35-1.52-3.46-2.28-6.26-2.28h-6.09v16.49Z" transform="translate(0.59)"/><path class="cls-2" d="M440.92,1125.51H429v37.3h-6.84v-37.3H410.23v-6.08h30.69Z" transform="translate(0.59)"/><path class="cls-2" d="M477.51,1162.81h-7.66l-10.93-14.67h-5v14.67h-6.78v-43.38H460c5.73,0,9.06,2.34,10.81,4.32a16,16,0,0,1,0,20.06,12.09,12.09,0,0,1-5,3.33ZM460,1142.06c2.8,0,4.91-.82,6.26-2.34a10.09,10.09,0,0,0,0-11.87c-1.35-1.52-3.46-2.28-6.26-2.28H454v16.49Z" transform="translate(0.59)"/><path class="cls-2" d="M507.26,1153.51H491.82l-3.69,9.3h-7.48l18.89-45.37,18.82,45.37h-7.42Zm-2.46-6.08-5.26-13.21-5.26,13.21Z" transform="translate(0.59)"/><path class="cls-2" d="M524.37,1162.81v-43.38h6.79v43.38Z" transform="translate(0.59)"/><path class="cls-2" d="M546.94,1134.92v27.89h-6.79v-45.43l27.25,29.88v-27.83h6.84v45.37Z" transform="translate(0.59)"/><path class="cls-2" d="M583.29,1162.81v-43.38h6.78v43.38Z" transform="translate(0.59)"/><path class="cls-2" d="M605.85,1134.92v27.89h-6.78v-45.43l27.25,29.88v-27.83h6.84v45.37Z" transform="translate(0.59)"/><path class="cls-2" d="M675.71,1146.44v11.75l-1.53,1s0,0-.11.06a.47.47,0,0,1-.23.12c-.06.06-.12.12-.18.12a.31.31,0,0,1-.24.12,1,1,0,0,1-.23.17c-.06.06-.12.06-.17.12s-.12,0-.18.11-.17.06-.29.12-.12.06-.18.12a.43.43,0,0,1-.29.12l-.12.11h-.11a1.31,1.31,0,0,1-.3.18c-.12.06-.29.11-.41.17l0,.06a21.92,21.92,0,0,1-7.78,1.87H662.2a20.69,20.69,0,0,1-6.84-1.11h-.06c-.24-.06-.41-.17-.64-.23l-.88-.35a12.14,12.14,0,0,1-2.1-1.06,19,19,0,0,1-4.8-3.62,21.51,21.51,0,0,1-4.68-6.9,21,21,0,0,1-1.58-6.26c0-.7-.11-1.46-.11-2.16V1140a22.86,22.86,0,0,1,1.69-7.37,22.18,22.18,0,0,1,4.68-6.9,21.69,21.69,0,0,1,15.32-6.31h1.11a1.63,1.63,0,0,1,.53.06,21.18,21.18,0,0,1,7.3,1.81.06.06,0,0,0,.06.06l.35.17h.06v8a13.84,13.84,0,0,0-2.92-1.87,16.24,16.24,0,0,0-2.69-1,.19.19,0,0,1-.17-.06h-.18c-.06-.06-.12-.06-.24-.06a.19.19,0,0,1-.12-.06c-.23-.06-.52-.06-.75-.11h-.12c-.06,0-.18-.06-.24-.06h-.11a.33.33,0,0,1-.23-.06h-.53c-.06,0-.12-.06-.18-.06h-.93a14.54,14.54,0,0,0-7.66,2.1,1.31,1.31,0,0,1-.3.18,12.57,12.57,0,0,0-2.56,2.1c-.24.24-.53.47-.77.76,0,0,0,.06,0,.06-.29.35-.53.71-.77,1.06l-.11.11-.35.53a.43.43,0,0,0-.12.23,14.2,14.2,0,0,0-1.81,4.45c-.06,0-.06,0-.06.11-.11.59-.23,1.17-.29,1.76v.64a3.78,3.78,0,0,0-.06.82,3.51,3.51,0,0,0,.06.76,15.49,15.49,0,0,0,.52,3.27A15,15,0,0,0,662.2,1156h.41a.22.22,0,0,0,.18-.06h.87c0-.06.06-.06.12-.06h.35c.41-.06.88-.17,1.28-.23.06,0,.06,0,.12-.06a.36.36,0,0,0,.24-.06h.17a.22.22,0,0,1,.18-.06c0-.06.17-.06.23-.06a.22.22,0,0,0,.12,0,12.84,12.84,0,0,0,2.4-.94h0v-8h-8.18v-6.14h15Z" transform="translate(0.59)"/><path class="cls-2" d="M823.67,1137.08h15.84v6.14H823.67v13.45H842.9v6.14h-26v-43.38h26v6.08H823.67Z" transform="translate(0.59)"/><path class="cls-2" d="M882.88,1141.12c0,6.14-1.81,11.4-5.26,15.2a17.69,17.69,0,0,1-7,4.8,25.6,25.6,0,0,1-9.47,1.69H850.9v-43.38h10.3a24.44,24.44,0,0,1,9.47,1.69,17.58,17.58,0,0,1,7,4.8C881.07,1129.72,882.88,1135,882.88,1141.12Zm-6.78,0c0-4.44-1.23-8.13-3.5-10.64-2.58-2.87-6.38-4.27-11.4-4.27h-3.52V1156h3.52c5,0,8.82-1.46,11.4-4.27C874.87,1149.25,876.1,1145.51,876.1,1141.12Z" transform="translate(0.59)"/><path class="cls-2" d="M895.26,1159.36a12.85,12.85,0,0,1-3.86-4.68,14.63,14.63,0,0,1-1.46-6.6v-28.65h6.79v28.65a7,7,0,0,0,2.68,5.9,10.84,10.84,0,0,0,6.61,2,11.06,11.06,0,0,0,6.61-2,7,7,0,0,0,2.63-5.9v-28.65h6.84v28.65a15.46,15.46,0,0,1-1.46,6.6,13.93,13.93,0,0,1-3.86,4.68,18.5,18.5,0,0,1-21.52,0Z" transform="translate(0.59)"/><path class="cls-2" d="M962.6,1159.24a24.47,24.47,0,0,1-3.5,1.88,22.2,22.2,0,0,1-8.48,1.69,21.66,21.66,0,0,1-21.69-21.69,21.41,21.41,0,0,1,6.37-15.38,20.33,20.33,0,0,1,6.9-4.62,20.61,20.61,0,0,1,8.42-1.69,21.12,21.12,0,0,1,8.48,1.69l.93.41v8a14.94,14.94,0,1,0,1.11,22.1,17.33,17.33,0,0,0,1.46-1.63Z" transform="translate(0.59)"/><path class="cls-2" d="M993.34,1153.51H977.91l-3.69,9.3h-7.48l18.89-45.37,18.82,45.37H997Zm-2.45-6.08-5.26-13.21-5.27,13.21Z" transform="translate(0.59)"/><path class="cls-2" d="M1032.39,1125.51h-11.93v37.3h-6.84v-37.3h-11.93v-6.08h30.7Z" transform="translate(0.59)"/><path class="cls-2" d="M1038.63,1162.81v-43.38h6.78v43.38Z" transform="translate(0.59)"/><path class="cls-2" d="M1066.28,1161.12a21.7,21.7,0,0,1-13.28-20,22.21,22.21,0,0,1,1.7-8.48,22.9,22.9,0,0,1,4.68-6.9,21.34,21.34,0,0,1,6.9-4.62,21.68,21.68,0,0,1,8.42-1.69,22.16,22.16,0,0,1,8.48,1.69,22.71,22.71,0,0,1,6.9,4.62,23.08,23.08,0,0,1,4.62,6.9,22.2,22.2,0,0,1,1.69,8.48,21.69,21.69,0,0,1-6.31,15.32,23.09,23.09,0,0,1-6.9,4.68,22.16,22.16,0,0,1-8.48,1.69A21.68,21.68,0,0,1,1066.28,1161.12Zm-2.11-30.53a14.84,14.84,0,1,0,10.53-4.38A14.86,14.86,0,0,0,1064.17,1130.59Z" transform="translate(0.59)"/><path class="cls-2" d="M1110.82,1134.92v27.89H1104v-45.43l27.25,29.88v-27.83h6.84v45.37Z" transform="translate(0.59)"/><path class="cls-1" d="M722.81,1159.86c0-1.09,0-2.19,0-3.29v-14.26a18.14,18.14,0,0,0-.69-5.2,10.24,10.24,0,0,0-2.2-4,9.72,9.72,0,0,0-3.83-2.54,19,19,0,0,0-10.39-.24,25.78,25.78,0,0,0-4.88,1.68l-.64.3v6.47l1.68-1a16.74,16.74,0,0,1,4.06-1.83,15.56,15.56,0,0,1,4.38-.62c2.29,0,4,.52,4.93,1.56s1.49,2.77,1.49,5.08v.9h-.11c-1.45,0-3,0-4.61.09a29.41,29.41,0,0,0-4.91.58,20.15,20.15,0,0,0-4.63,1.54,11.06,11.06,0,0,0-3.86,3.06,8.86,8.86,0,0,0-1.74,3.55,16.57,16.57,0,0,0-.41,3.72,7,7,0,0,0,.18,1.56,10.06,10.06,0,0,0,.45,1.55,13.77,13.77,0,0,0,.64,1.45,10.07,10.07,0,0,0,.78,1.28,6.7,6.7,0,0,0,2,1.87,12.17,12.17,0,0,0,2.44,1.17,14.34,14.34,0,0,0,2.6.65,15.7,15.7,0,0,0,2.47.22,12.85,12.85,0,0,0,3.3-.44,13.15,13.15,0,0,0,3.11-1.25,12.19,12.19,0,0,0,2.67-2h0v3h6.18l-.16-1.24A32,32,0,0,1,722.81,1159.86Zm-6.13-10.69c0,.5,0,1,0,1.53s-.06,1-.1,1.57a8.73,8.73,0,0,1-.78,3.14,6.51,6.51,0,0,1-1.66,2.22,7.32,7.32,0,0,1-2.48,1.38,10.07,10.07,0,0,1-5.5.2,4.66,4.66,0,0,1-1.71-.85,3.81,3.81,0,0,1-1.1-1.4,4.79,4.79,0,0,1-.41-2.06,5.28,5.28,0,0,1,.57-2.59,5.16,5.16,0,0,1,1.55-1.77,8,8,0,0,1,2.36-1.17,16.26,16.26,0,0,1,3-.67,30.53,30.53,0,0,1,3.18-.28c1.08,0,2.1-.06,3-.06h.14Z" transform="translate(0.59)"/><path class="cls-1" d="M754.05,1133.48a9.91,9.91,0,0,0-3.77-2.82,13.48,13.48,0,0,0-5.37-1,16,16,0,0,0-3.68.38,10,10,0,0,0-3.1,1.25,10.62,10.62,0,0,0-2.5,2.21v-3.09h-6l.08,1.18c.08,1.24.14,2.47.18,3.68s.06,2.44.06,3.68v25.35H736v-18.64a17,17,0,0,1,.49-4.09,9.87,9.87,0,0,1,1.46-3.31,7,7,0,0,1,2.52-2.2,8.09,8.09,0,0,1,3.83-.83,6.6,6.6,0,0,1,3.21.67,5,5,0,0,1,1.9,1.76,7.25,7.25,0,0,1,1,2.73,20.37,20.37,0,0,1,.3,3.54v20.37h6.09v-21.38a19.78,19.78,0,0,0-.64-5.21A11.63,11.63,0,0,0,754.05,1133.48Z" transform="translate(0.59)"/><path class="cls-1" d="M785.65,1115.5v17.91l-.24-.24-.84-.8a10.19,10.19,0,0,0-3.72-2.1,14.13,14.13,0,0,0-4.11-.59,14,14,0,0,0-6.69,1.48,12.17,12.17,0,0,0-4.42,4,16.82,16.82,0,0,0-2.35,5.61,29.36,29.36,0,0,0-.69,6.44,27.81,27.81,0,0,0,.32,4.27,23.06,23.06,0,0,0,1,4.13,17.22,17.22,0,0,0,1.8,3.71,13.21,13.21,0,0,0,2.69,3,12.1,12.1,0,0,0,3.68,2,14.19,14.19,0,0,0,4.66.73,13.06,13.06,0,0,0,6.38-1.52,10.14,10.14,0,0,0,2.53-2v2.79h6.09V1115.5Zm0,32.06a19.6,19.6,0,0,1-.21,2.81,18.57,18.57,0,0,1-.66,2.79,13.5,13.5,0,0,1-1.12,2.54,9.2,9.2,0,0,1-1.57,2A6.84,6.84,0,0,1,780,1159a7.74,7.74,0,0,1-6.42-.52,7,7,0,0,1-2.73-2.79,10,10,0,0,1-.79-1.83,19.55,19.55,0,0,1-.56-2.16,21,21,0,0,1-.31-2.23c-.07-.74-.11-1.45-.11-2.12a25.28,25.28,0,0,1,.41-4.47,12.56,12.56,0,0,1,1.37-3.92,7.56,7.56,0,0,1,2.51-2.73,7.13,7.13,0,0,1,4-1,6.73,6.73,0,0,1,3.9,1.06,8.32,8.32,0,0,1,2.55,2.85,13.28,13.28,0,0,1,1.4,4A24.09,24.09,0,0,1,785.65,1147.56Z" transform="translate(0.59)"/><circle class="cls-2" cx="713.16" cy="54.64" r="54.64" transform="translate(170.83 520.28) rotate(-45)"/><path class="cls-1" d="M761.14,339.55V183.37a48,48,0,0,0-96,0V339.58A120.4,120.4,0,0,1,761.14,339.55Z" transform="translate(0.59)"/><circle class="cls-2" cx="374.68" cy="643.29" r="54.64" transform="translate(-344.55 453.36) rotate(-45)"/><path class="cls-1" d="M510.16,620.48l129.3-74.63a120.62,120.62,0,0,1-46.44-84L462.18,537.37a48,48,0,1,0,48,83.11Z" transform="translate(0.59)"/><circle class="cls-2" cx="1051.63" cy="643.29" r="54.64" transform="translate(45.76 1355.18) rotate(-66.73)"/><path class="cls-1" d="M964.14,537.37,833.33,461.85a120.84,120.84,0,0,1-46.45,84l129.27,74.63a48,48,0,1,0,48-83.11Z" transform="translate(0.59)"/><path class="cls-2" d="M675.57,572.6c10.8.64,23.14,1,35.68,1s24.87-.33,35.67-1a2.31,2.31,0,0,0,2.12-1.76c.41-1.7,2.34-10.43-.49-14.92a5.59,5.59,0,0,0-3.6-2.58,2.44,2.44,0,0,0-.53-.05c-3.23.08-6.72.11-10.65.11-5.1,0-10.34-.06-15.42-.12s-10.35-.12-15.48-.12c-11,0-19.19.29-26.59.91a2.36,2.36,0,0,0-1.33.58c-4,3.51-2.18,13.72-1.48,16.26A2.32,2.32,0,0,0,675.57,572.6Z" transform="translate(0.59)"/><path class="cls-2" d="M749,595.17c.57-2,2.23-10.16-.12-14.33a5,5,0,0,0-3-2.47,2.36,2.36,0,0,0-.65-.07c-3.31.07-6.87.11-10.9.11-5.21,0-10.58-.06-15.77-.12s-10.58-.12-15.81-.12c-11.23,0-19.62.28-27.19.91a2.33,2.33,0,0,0-1.94,1.38c-1.49,3.43-1.49,11.56,0,15a2.34,2.34,0,0,0,1.52,1.31c6.11,1.66,13.27,1.87,18.83,1.87,2.83,0,5.76-.06,8.6-.12s5.83-.13,8.72-.13,5.84.07,8.71.13,5.77.12,8.6.12h0c5.56,0,12.72-.21,18.83-1.87A2.32,2.32,0,0,0,749,595.17Z" transform="translate(0.59)"/><path class="cls-2" d="M690.39,603.76a2.32,2.32,0,0,0-2.25,2.9c2.57,10,13.46,14.45,23.11,14.45s20.53-4.47,23.1-14.45a2.32,2.32,0,0,0-2.24-2.9Z" transform="translate(0.59)"/><path class="cls-2" d="M721.83,361.48V535a12.24,12.24,0,0,0,12.32,12.26c3.16,0,6.34-.09,9.5-.17a33.55,33.55,0,0,0,11.92-2.56c43.43-19.2,68-66.13,59.39-113a102.77,102.77,0,0,0-78.42-82A12.19,12.19,0,0,0,721.83,361.48ZM746,369.7a4.06,4.06,0,0,1,5.35-2.08,89,89,0,0,1,46.82,48.56,4.06,4.06,0,0,1-2.28,5.26,3.93,3.93,0,0,1-1.51.28,4.06,4.06,0,0,1-3.75-2.53A80.88,80.88,0,0,0,748,375.05,4,4,0,0,1,746,369.7Z" transform="translate(0.59)"/><path class="cls-2" d="M669.25,502c-7.55-4.2-9.33-3.74-13.34,3.82-3.37,6.36-3.7,12.81-.66,19.25,6.44,13.66,18.11,19,32.44,19.28,17.31.3,29.1-13.64,26.6-32.39-9.67,8.73-24.7,2.56-32.15,15.18.93-5.25,3.57-9.26,4.18-13.57s-.75-9.07-1.26-13.63l2.16-.57c1.19,2.15,2.74,4.19,3.51,6.48,2.61,7.68,5.43,9.17,12.95,6.36a17.28,17.28,0,0,0,11.64-16.38c.16-7.38.06-14.77.07-22.16V459.55c-2.2.37-3,.27-3.53.62-11.46,8-23.34,8.46-35.84,2.51-1.9-.91-4.61,0-6.9-.24-6.25-.74-14.64.55-18.29-3-8.05-7.81-16.28-12.17-27.42-13.95-8.82-1.41-11.07-2.4-12.35,6.61-.82,5.74,1.12,11.94,2.27,17.85a93.19,93.19,0,0,0,3.55,11.63c1.27,3.81,2.7,7.57,4.44,12.43,12.78-19.29,19.92-24.45,28-20.1-4.86,2.74-10.07,4.46-13.49,7.94a27.48,27.48,0,0,0-7.24,13.37c-.9,4.85.13,10.5,1.8,15.28,2.92,8.38,9.06,13.82,19.47,16.88-3.49-13.79-.42-24.15,8.42-33,1.18-1.18.38-4.4.41-6.68,0-3.24,0-6.49,0-9.73l2.2-.25c1.72,4.93,2.56,10.46,5.41,14.62S674,499.34,678,502.73l-1,1.93C674.42,503.81,671.6,503.36,669.25,502Z" transform="translate(0.59)"/><path class="cls-2" d="M618.31,434.73c3.17,6.61,9.36,8.48,16.26,8s12.26-3.58,14.53-10.68c.71-2.25,1.71-4.4,2.58-6.59l2.25.7c1.52,5.85-1.15,10.66-4.61,15.55-1.42,2-2.93,5.25-2.28,7.25,2.58,8,13.58,11.44,21.5,7a59.15,59.15,0,0,1-2.37-6.58,50.1,50.1,0,0,1-.78-6.51l2.61-.67c.83,1.78,1.76,3.52,2.48,5.33,3.32,8.25,9.16,13.17,18.18,14,10.24.92,18.88-2,25.08-10.55a8.46,8.46,0,0,0,1.49-4.62c.11-16.45.07-32.89.1-49.34,0-4.29-2.44-5.69-6.36-6-11-.79-19,5.32-21.68,16.51-1,4.13-.61,7.36,3.55,9.69,2,1.11,3.36,3.23,5,4.89-.32.77-.64,1.53-1,2.29-8.46-5.31-17.24-6.75-26.87-3.85a24,24,0,0,1,9.26-6.15c4.44-1.77,8.6-13.28,5.1-16.11-11-8.86-15.27-19.76-11.5-33.27-7.66-2.61-16.19-.14-20.3,8.22-3.37,6.88-6.14,16.08-4.27,22.91,1.73,6.32,10,10.86,16.79,17.64-4.52-1.18-7.88-1.61-10.86-2.9-11.3-4.91-13.22-15.07-12.58-26.2-9.76,2.89-14.81,10.87-15.72,21.81a19.83,19.83,0,0,1-3.63,9.35C616,421.93,615.21,428.29,618.31,434.73Z" transform="translate(0.59)"/><path class="cls-2" d="M691,390.92c4.21-2.74,9.39-5.16,14.28-5.43,10.34-.57,10.09.09,10.57-11.36-.7-4.45-.93-9-2.21-13.32-2.59-8.69-9.92-13.4-18.6-12-10.19,1.61-16.58,7.84-19.48,17.63q-4.17,14.05,6.81,23.92C685.23,392.92,687.32,393.3,691,390.92Z" transform="translate(0.59)"/><path class="cls-2" d="M362.44,546.74c-4.34-31.83,1.42-59.4,4.94-72.25a1.59,1.59,0,0,0-2.71-1.48c-4.6,4.9-9.07,7.69-13.33,9q.11-10.17.62-20.29a481.06,481.06,0,0,1,8.37-69.1,585.94,585.94,0,0,1,17.23-66.95A345.94,345.94,0,0,1,405.2,262a364.07,364.07,0,0,1,39.85-57.29c7.4-9,15.46-17.52,23.67-25.88l6.35-6.06c2.14-2,4.2-4.1,6.44-6,4.42-3.85,8.73-7.84,13.35-11.47a370.62,370.62,0,0,1,58.31-39.79c5.21-2.78,10.38-5.68,15.74-8.18l8-3.89L585,99.84c5.38-2.52,11-4.58,16.45-6.82s11.18-4,16.78-6.07l-.7-2.44a379.53,379.53,0,0,0-229.83,167A423.73,423.73,0,0,0,353.9,317a298.25,298.25,0,0,0-18.67,71.5A320.47,320.47,0,0,0,334,462.16q.94,9.29,2.42,18.48c-7.35-3.5-13.41-10.51-17.48-16.36a1.6,1.6,0,0,0-2.83,1.4c9.91,31.7,34,68.41,43.44,82.19A1.59,1.59,0,0,0,362.44,546.74Z" transform="translate(0.59)"/><path class="cls-2" d="M809,90.53c28.08,15.61,46.7,36.74,54.87,47.27a1.59,1.59,0,0,0,2.81-1.29c-1.16-6.6-.72-11.84.8-16,2.23,1.33,4.46,2.66,6.67,4a468.17,468.17,0,0,1,57.58,41.42c9.06,7.52,17.76,15.42,26.33,23.45,4.12,4.2,8.55,8.07,12.56,12.37,2,2.13,4.12,4.2,6.18,6.3s4,4.32,6,6.47a338.7,338.7,0,0,1,42.93,56.25,378.21,378.21,0,0,1,49.45,133.13c.6,2.94,1,5.91,1.39,8.87l1.27,8.91c.62,6,1.28,11.93,1.75,17.92.3,6,.81,12,1,18s.2,12,.07,18.07q-.34,18.07-2.43,36.12t-5.71,35.88l2.47.62q5.11-17.61,8.57-35.7t4.92-36.51c.55-6.12.92-12.27,1.16-18.42s.17-12.32.27-18.49c-.08-6.17-.34-12.34-.57-18.52l-.69-9.24c-.25-3.09-.41-6.18-.82-9.25a394.26,394.26,0,0,0-15.09-72.82,389.23,389.23,0,0,0-29.32-68.72A411.12,411.12,0,0,0,1001.83,198a314.83,314.83,0,0,0-25.5-27.8c-2.3-2.16-4.65-4.25-7-6.37s-4.59-4.31-7.08-6.24c-4.89-4-9.7-8-14.83-11.68a319.58,319.58,0,0,0-65.08-37.42c-.54-.23-1.08-.44-1.63-.66,6.6-2.51,14.25-2.94,20.34-2.73a1.6,1.6,0,0,0,.58-3.11C870.33,91,826.54,88.21,809.81,87.54A1.59,1.59,0,0,0,809,90.53Z" transform="translate(0.59)"/><path class="cls-2" d="M977.21,707.54c-25.59,19.42-52.43,28-65.36,31.21a1.59,1.59,0,0,0,0,3.09c6.79,1.67,11.53,4.32,14.75,7.57-6,3.47-12.09,6.83-18.23,10a474.81,474.81,0,0,1-64.94,28.18,553.54,553.54,0,0,1-67.76,18.86,345.59,345.59,0,0,1-70.21,7.79A375.19,375.19,0,0,1,634.77,808a370.73,370.73,0,0,1-68.69-19.35,374.86,374.86,0,0,1-64.28-32c-5.13-3.15-10-6.63-15.08-9.93S477,739.58,472.1,736s-9.44-7.52-14.19-11.28l-13.65-12-1.8,1.8,12.79,13.1c4.47,4.16,8.88,8.4,13.43,12.5,4.68,3.93,9.29,8,14.08,11.8s9.66,7.56,14.66,11.12a376.22,376.22,0,0,0,133.86,61.43,393.74,393.74,0,0,0,73.87,10.06,420.38,420.38,0,0,0,74.9-3.33,295.52,295.52,0,0,0,72.53-19.91,322.69,322.69,0,0,0,65.35-36.68q7.44-5.45,14.54-11.29c.35,7.92-2.69,16.32-5.69,22.55a1.6,1.6,0,0,0,2.61,1.78c22.74-24.21,42.88-63.2,50.22-78.24A1.59,1.59,0,0,0,977.21,707.54Z" transform="translate(0.59)"/></svg>